<?xml version="1.0" standalone="no"?>
<!DOCTYPE svg PUBLIC "-//W3C//DTD SVG 20010904//EN"
 "http://www.w3.org/TR/2001/REC-SVG-20010904/DTD/svg10.dtd">
<svg version="1.0" xmlns="http://www.w3.org/2000/svg"
 width="836.000000pt" height="836.000000pt" viewBox="0 0 836.000000 836.000000"
 preserveAspectRatio="xMidYMid meet">
<metadata>
Created by potrace 1.11, written by Peter Selinger 2001-2013
</metadata>
<g transform="translate(0.000000,836.000000) scale(0.100000,-0.100000)"
fill="#000000" stroke="none">
<path d="M1777 7773 c-23 -22 -3 -47 103 -130 71 -56 241 -178 263 -189 15 -8
45 -31 65 -50 20 -20 51 -43 67 -51 45 -24 132 -90 207 -158 37 -33 99 -87
139 -120 39 -33 108 -98 153 -145 44 -47 98 -101 119 -120 151 -138 346 -336
386 -390 27 -36 71 -89 99 -118 59 -60 75 -87 102 -174 20 -63 19 -78 -5 -78
-23 0 -131 98 -168 154 -30 43 -56 56 -104 47 -57 -11 -123 19 -193 89 -31 30
-76 64 -100 76 -122 57 -122 57 -139 104 l-17 45 -69 -3 c-57 -2 -82 2 -135
23 -36 15 -82 40 -102 56 -21 16 -58 33 -84 38 -30 6 -57 19 -78 40 -18 17
-55 38 -86 47 -30 9 -68 26 -84 39 -17 12 -42 26 -56 30 -14 4 -43 22 -65 40
-22 18 -60 43 -85 55 -25 12 -57 31 -72 42 -15 10 -50 26 -78 34 -28 8 -67 26
-86 39 -20 14 -52 27 -73 30 -20 3 -43 10 -51 16 -33 21 -117 58 -141 63 -14
3 -45 21 -70 41 -24 19 -52 35 -62 35 -21 0 -93 35 -102 50 -3 5 -36 19 -73
30 -37 11 -84 32 -104 45 -20 14 -55 29 -78 34 -43 10 -90 36 -90 50 0 15 -68
53 -81 46 -23 -15 -98 7 -141 40 -29 21 -61 36 -91 40 -26 4 -59 16 -72 27
-39 31 -95 34 -122 8 -13 -11 -23 -25 -23 -31 0 -18 49 -59 70 -59 21 0 40 -9
100 -46 19 -13 60 -30 90 -40 30 -9 72 -30 92 -46 20 -16 52 -34 70 -40 18 -6
52 -23 75 -37 23 -14 75 -46 114 -70 40 -24 90 -61 110 -82 21 -22 54 -42 76
-48 22 -6 48 -20 58 -31 10 -11 35 -30 54 -42 20 -12 53 -36 73 -55 21 -18 63
-46 95 -62 32 -16 78 -46 102 -68 24 -21 67 -51 96 -68 79 -45 136 -84 178
-121 20 -19 41 -34 45 -34 5 0 30 -20 58 -44 27 -25 65 -53 84 -63 64 -34 103
-63 168 -128 41 -40 80 -69 106 -78 40 -14 96 -57 181 -142 22 -21 58 -54 80
-73 57 -48 173 -151 212 -188 26 -25 32 -39 31 -69 -1 -39 12 -55 49 -55 12 0
38 -14 57 -30 30 -27 36 -40 46 -103 6 -40 18 -91 27 -114 21 -59 11 -91 -35
-110 -52 -21 -82 -52 -82 -84 0 -35 -37 -65 -90 -74 -32 -5 -45 -15 -68 -48
-23 -36 -34 -42 -66 -45 -38 -3 -110 15 -172 43 -35 16 -163 37 -176 29 -5 -3
-39 8 -76 24 -72 32 -176 57 -282 68 -80 8 -107 26 -143 98 -34 66 -54 71 -82
18 -36 -68 -92 -67 -273 4 -50 20 -67 23 -78 13 -8 -6 -14 -17 -14 -24 0 -17
118 -95 144 -95 24 0 48 -16 152 -100 38 -31 86 -64 106 -73 20 -10 40 -22 43
-28 4 -5 23 -20 43 -33 21 -13 54 -40 75 -59 23 -22 52 -39 75 -43 49 -9 89
-30 102 -53 10 -19 51 -34 106 -40 6 0 31 -16 54 -35 24 -19 63 -40 87 -47 35
-9 43 -16 43 -35 0 -13 -5 -24 -11 -24 -6 0 -32 -23 -58 -50 -37 -39 -54 -50
-78 -50 -21 0 -47 -13 -80 -38 -26 -20 -66 -43 -88 -51 -22 -7 -51 -24 -65
-36 -14 -13 -50 -35 -80 -49 -71 -34 -125 -67 -164 -101 -17 -15 -41 -31 -54
-36 -35 -13 -130 -77 -181 -121 -24 -21 -49 -38 -55 -38 -7 0 -27 -16 -46 -35
-19 -20 -51 -40 -71 -47 -21 -6 -57 -31 -83 -58 -26 -27 -77 -63 -114 -81 -37
-19 -83 -48 -102 -65 -19 -17 -48 -34 -63 -38 -16 -4 -50 -27 -76 -51 -27 -25
-57 -45 -68 -45 -12 0 -42 -17 -68 -39 -26 -21 -61 -43 -78 -48 -30 -8 -32
-12 -32 -53 0 -42 2 -45 28 -48 16 -2 45 4 65 13 58 26 116 57 132 71 21 18
141 87 210 121 30 14 73 39 94 55 22 16 56 31 77 34 22 4 56 22 84 45 49 41
57 43 142 39 40 -1 54 2 59 14 12 31 98 60 106 36 4 -14 129 -24 147 -11 12 8
12 12 -2 26 -10 9 -17 20 -17 25 0 5 -9 12 -20 15 -11 3 -20 14 -20 24 0 14
17 21 79 34 48 11 95 29 123 47 25 17 67 37 93 44 26 8 54 21 63 29 21 17 96
47 120 47 10 0 42 16 72 35 39 24 67 35 95 35 30 0 50 8 76 29 46 38 98 59
188 76 77 15 87 13 119 -24 7 -9 12 -46 12 -98 0 -77 2 -86 25 -107 14 -13 38
-26 54 -29 18 -4 41 -21 58 -44 15 -20 43 -51 61 -68 27 -26 32 -39 32 -76 0
-28 10 -65 25 -97 33 -69 33 -119 0 -134 -14 -6 -25 -14 -25 -18 0 -4 -9 -10
-21 -13 -12 -3 -18 -10 -14 -17 4 -6 9 -9 12 -6 3 3 12 -2 20 -10 8 -8 19 -12
24 -9 12 8 49 -13 49 -29 0 -18 40 -52 71 -59 33 -8 53 -46 45 -85 -7 -30 -36
-62 -208 -227 -287 -277 -285 -275 -322 -275 -19 0 -38 5 -41 10 -3 6 -14 10
-24 10 -26 0 -49 29 -67 86 -9 27 -23 56 -30 64 -15 17 -38 71 -36 83 1 4 -10
31 -25 60 -22 40 -28 64 -26 107 1 30 -8 122 -19 203 -20 150 -18 196 8 218
21 18 18 76 -5 89 -11 5 -27 10 -35 10 -17 0 -47 -60 -66 -129 -6 -24 -22 -60
-35 -80 -32 -48 -43 -131 -45 -321 -1 -189 12 -248 75 -340 24 -36 74 -94 110
-128 64 -62 65 -65 65 -115 0 -29 -4 -58 -9 -65 -24 -39 -107 -126 -307 -322
-84 -83 -144 -150 -144 -163 0 -19 21 -37 45 -37 12 0 36 16 55 35 19 19 39
35 45 35 6 0 29 18 51 40 21 22 43 40 47 40 4 0 51 36 103 80 52 44 101 80
110 80 9 0 41 15 72 33 128 73 149 82 179 72 40 -14 73 -82 66 -138 -8 -62
-40 -147 -65 -175 -22 -23 -27 -24 -102 -18 -46 4 -99 16 -125 27 -26 12 -72
23 -103 26 -54 5 -58 4 -58 -15 0 -25 0 -25 105 -96 101 -67 100 -92 -3 -142
-44 -22 -129 -100 -147 -134 -12 -24 -12 -30 2 -50 19 -27 48 -23 138 19 69
33 198 56 226 40 27 -14 32 -44 15 -94 -9 -25 -16 -52 -16 -59 0 -8 -20 -54
-44 -103 -44 -86 -46 -89 -109 -120 -50 -24 -67 -39 -75 -62 -11 -30 -9 -32
28 -56 49 -31 49 -41 10 -160 -34 -102 -36 -118 -16 -134 27 -22 64 7 87 68
35 94 76 123 115 80 15 -17 19 -39 21 -127 1 -59 8 -133 15 -164 10 -49 10
-65 -4 -105 -19 -57 -18 -267 1 -326 11 -31 10 -45 -4 -86 -13 -41 -14 -62 -5
-132 25 -195 29 -254 19 -292 -6 -21 -9 -50 -8 -65 5 -71 0 -88 -33 -105 -31
-15 -13 -16 306 -16 l339 -1 -6 57 c-23 207 -34 959 -16 978 6 5 42 12 76 14
10 1 11 47 6 204 -6 216 -1 257 40 318 32 48 63 62 98 43 37 -18 39 -18 39 9
0 12 9 33 19 46 l18 24 172 -6 171 -5 0 24 c0 17 -7 25 -22 28 -13 2 -67 12
-121 22 -115 21 -132 34 -128 98 3 51 -11 66 -71 73 -105 14 -178 96 -131 149
10 12 50 37 89 57 64 32 124 84 124 107 0 4 -16 21 -36 37 -40 32 -39 51 4 80
22 14 45 18 117 16 90 -2 166 16 253 61 15 7 51 19 80 26 30 7 72 27 95 44 23
17 54 39 68 48 23 15 118 188 120 220 0 7 10 31 22 53 l22 40 65 1 c37 0 81 8
102 17 41 19 64 14 73 -14 7 -20 0 -195 -15 -439 -15 -227 -14 -237 17 -266
l27 -25 22 23 c31 31 49 143 33 198 -10 33 -9 47 5 84 11 28 15 57 11 78 -4
20 0 47 9 70 9 21 16 55 16 77 0 40 49 127 80 141 8 4 26 13 39 20 21 11 26
10 37 -5 8 -11 30 -19 56 -22 24 -2 49 -6 55 -8 23 -8 1 -361 -26 -429 -7 -16
-9 -48 -5 -75 4 -31 1 -59 -9 -82 -17 -41 -28 -100 -29 -150 0 -61 -38 -299
-50 -322 -7 -12 -15 -53 -19 -92 -3 -38 -13 -99 -22 -135 -9 -36 -21 -96 -28
-135 -6 -38 -20 -95 -30 -125 -11 -30 -19 -67 -19 -83 0 -15 -6 -40 -14 -55
-27 -52 -49 -128 -52 -173 -2 -48 -57 -228 -80 -264 -8 -12 -18 -51 -23 -89
-6 -44 -19 -82 -36 -107 -39 -59 -69 -274 -45 -320 23 -42 80 -5 80 52 0 14
11 43 25 63 14 20 30 58 36 84 7 26 16 51 20 56 5 6 9 22 9 37 0 14 12 43 26
64 14 21 30 63 35 93 6 31 20 72 30 92 11 19 26 46 34 60 7 14 18 56 23 94 8
49 17 76 35 95 31 33 43 57 51 103 6 31 33 97 91 223 34 72 57 133 66 175 5
25 28 82 49 126 22 45 44 99 49 120 6 22 26 91 46 154 19 63 40 135 46 160 6
25 19 72 30 105 10 33 19 76 19 96 0 38 32 122 58 152 8 9 25 17 37 17 13 0
28 6 34 14 14 16 6 36 -33 89 -18 24 -21 41 -19 105 2 68 12 296 16 377 3 46
35 44 104 -6 32 -24 60 -47 61 -51 2 -5 25 -19 50 -32 26 -13 74 -53 107 -88
33 -34 94 -92 135 -128 41 -36 103 -93 139 -127 37 -35 98 -90 138 -124 40
-34 75 -70 78 -80 4 -12 25 -24 60 -34 41 -12 70 -31 122 -79 41 -38 83 -68
104 -74 54 -14 191 -115 299 -218 52 -50 102 -93 111 -97 16 -5 39 9 39 25 0
4 -34 45 -75 89 -41 45 -75 85 -75 89 0 5 -22 24 -48 43 -27 19 -66 61 -87 93
-98 149 -219 300 -339 421 -72 73 -137 146 -143 163 -7 16 -38 53 -69 82 -30
29 -90 96 -132 148 -42 52 -87 105 -99 119 -13 13 -23 27 -23 31 0 4 -21 22
-46 40 -31 22 -54 49 -69 81 -12 27 -43 73 -69 101 -72 80 -73 81 -78 104 -8
32 1 40 66 58 58 17 58 17 52 49 -16 77 -21 137 -14 156 6 19 16 21 77 21 76
0 73 2 160 -99 12 -13 21 -21 21 -17 0 11 89 -59 111 -88 11 -14 25 -26 31
-26 14 0 125 -79 162 -116 34 -33 109 -119 177 -202 24 -30 65 -79 92 -110 26
-31 50 -64 54 -72 11 -25 124 -160 133 -160 13 0 36 -48 44 -93 12 -66 86 -75
86 -11 0 26 -30 94 -41 94 -17 0 -49 70 -49 106 0 60 25 70 80 34 24 -16 55
-43 68 -60 13 -17 49 -50 80 -73 30 -23 70 -53 88 -67 246 -186 358 -289 667
-617 47 -51 94 -93 102 -93 24 0 28 25 8 57 -32 52 -166 215 -242 295 -41 43
-84 93 -95 112 -45 74 -131 192 -149 206 -11 8 -39 22 -61 31 -40 16 -41 18
-46 72 -4 43 -12 63 -32 84 -37 39 -46 79 -20 87 11 4 31 2 45 -3 42 -16 129
-80 159 -115 31 -38 121 -73 161 -62 37 9 46 45 17 68 -12 10 -30 18 -40 18
-18 0 -310 226 -310 239 0 19 -63 71 -97 80 -36 10 -161 115 -232 196 -43 48
-156 153 -227 209 -15 12 -41 44 -59 72 -18 29 -49 64 -68 78 -22 17 -43 47
-57 80 -13 34 -31 58 -48 67 -14 8 -37 24 -50 36 -14 13 -28 20 -32 18 -4 -3
-21 2 -36 10 -16 8 -34 15 -40 15 -6 0 -19 9 -29 20 -10 11 -15 20 -11 20 16
0 -37 55 -65 67 -16 7 -32 19 -35 27 -3 9 6 46 20 84 22 57 33 73 62 88 l36
19 -7 58 c-4 39 -2 57 5 57 18 0 64 -27 84 -49 24 -26 62 -27 75 -2 6 10 8 33
5 52 -5 27 -1 38 15 53 22 20 22 19 84 -13 40 -21 82 -35 117 -38 48 -4 60
-10 92 -44 43 -46 60 -48 82 -14 21 33 12 90 -18 111 -116 80 -133 89 -182 93
-38 3 -67 68 -40 90 8 6 37 14 65 18 64 7 89 31 73 69 -7 14 -28 32 -47 40
-43 18 -44 35 -4 68 26 22 40 26 96 26 36 0 79 6 96 14 18 8 58 26 89 40 31
14 66 26 78 26 29 0 70 23 104 59 17 17 35 31 42 31 19 0 36 27 30 47 -11 34
-88 73 -144 73 -58 0 -74 16 -65 64 7 32 66 96 91 97 9 0 31 9 47 19 40 25
176 100 181 100 6 0 147 69 164 80 8 6 27 14 43 20 32 11 37 40 7 40 -12 0
-67 -16 -123 -35 -57 -19 -127 -39 -157 -46 -30 -6 -74 -20 -98 -32 -33 -16
-48 -19 -70 -11 -30 11 -41 49 -22 84 16 29 -2 54 -48 68 -22 7 -43 19 -46 28
-8 20 15 62 54 99 36 33 91 140 84 160 -7 17 -43 34 -79 37 -45 4 -45 38 -1
69 43 29 49 41 36 74 -12 33 -35 41 -72 27 -51 -19 -74 3 -58 57 7 27 5 33
-17 51 -35 27 -48 25 -96 -14 -38 -31 -46 -34 -82 -27 -34 6 -125 54 -125 65
0 2 16 23 35 47 19 24 35 51 35 59 0 8 18 53 40 100 22 47 40 92 40 101 0 24
-25 31 -90 23 l-57 -6 -38 48 c-22 27 -44 54 -50 59 -6 6 -20 30 -30 55 -13
32 -31 53 -58 70 -22 14 -52 37 -68 53 -15 15 -35 27 -44 27 -9 0 -47 -27 -83
-60 -62 -56 -94 -71 -106 -52 -3 5 22 60 54 123 33 63 60 119 60 126 0 19 -12
22 -95 28 -81 5 -99 12 -152 64 -22 21 -43 31 -63 31 -29 0 -42 -9 -87 -63
-35 -42 -69 -36 -78 15 -3 11 -19 33 -36 47 -26 22 -31 34 -33 73 -4 117 -104
116 -136 -1 -7 -27 -28 -54 -74 -94 -99 -87 -126 -73 -112 56 17 154 -1 197
-83 197 -65 0 -101 -12 -156 -54 -39 -31 -53 -36 -79 -31 -34 7 -79 53 -71 73
8 21 -20 63 -83 128 -42 43 -69 -4 -78 -134 -6 -87 -10 -108 -29 -131 -13 -14
-39 -55 -59 -89 -39 -65 -44 -70 -64 -50 -25 25 -7 125 35 187 27 39 26 36 23
121 -2 68 -13 100 -33 100 -7 0 -36 -23 -66 -50 -29 -28 -61 -50 -70 -50 -27
0 -79 -37 -95 -68 -19 -36 -35 -44 -108 -47 -80 -4 -88 7 -94 132 -7 149 -11
165 -37 161 -29 -4 -37 -46 -36 -183 0 -60 -3 -155 -8 -209 -10 -127 -22 -138
-87 -78 -53 49 -107 78 -130 69 -8 -3 -18 -19 -21 -34 -3 -15 -20 -56 -37 -91
-40 -78 -62 -86 -130 -48 -53 30 -83 28 -91 -6 -8 -29 5 -50 53 -88 36 -29 40
-36 40 -79 0 -48 21 -91 45 -91 7 0 34 -21 59 -47 52 -52 57 -79 26 -131 -18
-30 -40 -36 -40 -11 0 8 -29 50 -98 139 l-19 24 -66 -33 c-53 -27 -73 -32
-101 -27 -21 4 -40 15 -46 27 -6 11 -37 32 -68 47 -47 22 -61 35 -80 73 -13
26 -28 68 -35 95 -7 26 -17 49 -23 51 -7 2 -24 -7 -39 -22 -16 -14 -33 -25
-38 -25 -13 0 -80 44 -126 84 -19 16 -58 39 -85 51 -28 13 -75 39 -105 59 -29
20 -58 36 -65 36 -6 0 -38 18 -71 40 -33 22 -67 40 -76 40 -9 0 -36 17 -60 38
-62 53 -106 83 -161 109 -47 22 -110 65 -176 119 -18 15 -57 35 -86 45 -29 9
-75 33 -100 53 -26 20 -54 36 -61 36 -7 0 -50 25 -96 56 -104 69 -156 93 -172
77z m2003 -4602 c0 -9 37 -28 130 -67 40 -16 119 -84 121 -102 7 -95 5 -137
-9 -165 -16 -32 -48 -67 -63 -67 -4 0 -29 -18 -55 -41 -43 -37 -51 -40 -88
-35 -29 5 -47 2 -61 -8 -27 -21 -52 -20 -81 3 -20 16 -30 17 -73 8 -61 -12
-112 -3 -137 24 -17 19 -17 21 8 72 15 29 32 71 39 95 7 23 18 47 26 53 7 6
13 19 13 28 0 30 40 82 75 96 30 13 34 20 37 57 2 35 7 43 28 49 37 10 90 10
90 0z"/>
<path d="M2510 10 c0 -5 5 -10 11 -10 5 0 7 5 4 10 -3 6 -8 10 -11 10 -2 0 -4
-4 -4 -10z"/>
</g>
</svg>
